# xmcd
#
# Track frame offsets: 
#        150
#        22850
#        39352
#        61115
#        82480
#        102482
#        120422
#        136610
#
# Disc length: 2119 seconds
#
# Revision: 2
# Processed by: cddbd v1.5.2PL0 Copyright (c) Steve Scherf et al.
# Submitted via: ExactAudioCopy v1.0b1
#
DISCID=5c084508
DTITLE=The Whispers - Open Up Your Love
DYEAR=1977
DGENRE=R&B
TTITLE0=Make It With You
TTITLE1=Chocolate Girl
TTITLE2=Love Is A Dream
TTITLE3=Open Up Your Love
TTITLE4=I Fell In Love Last Night (At The Disco)
TTITLE5=You Are Number One
TTITLE6=You Never Miss Your Water ('Til Your Well Runs Dry)
TTITLE7=I'm Gonna Make You My Wife
EXTD=YEAR: 1977
EXTT0=
EXTT1=
EXTT2=
EXTT3=
EXTT4=
EXTT5=
EXTT6=
EXTT7=
PLAYORDER=
